<?xml version="1.0" standalone="no"?>
<svg xmlns:xlink="http://www.w3.org/1999/xlink" id="wave" style="transform:rotate(0deg); transition: 0.3s" viewBox="0 0 1440 230" version="1.1" xmlns="http://www.w3.org/2000/svg"><defs><linearGradient id="sw-gradient-0" x1="0" x2="0" y1="1" y2="0"><stop stop-color="rgba(13, 110, 253, 1)" offset="0%"/><stop stop-color="rgba(14.315, 58.389, 123.364, 1)" offset="100%"/></linearGradient></defs><path style="transform:translate(0, 0px); opacity:1" fill="url(#sw-gradient-0)" d="M0,0L20,3.8C40,8,80,15,120,15.3C160,15,200,8,240,38.3C280,69,320,138,360,145.7C400,153,440,100,480,99.7C520,100,560,153,600,149.5C640,146,680,84,720,49.8C760,15,800,8,840,26.8C880,46,920,92,960,95.8C1000,100,1040,61,1080,38.3C1120,15,1160,8,1200,15.3C1240,23,1280,46,1320,65.2C1360,84,1400,100,1440,115C1480,130,1520,146,1560,145.7C1600,146,1640,130,1680,115C1720,100,1760,84,1800,92C1840,100,1880,130,1920,118.8C1960,107,2000,54,2040,46C2080,38,2120,77,2160,88.2C2200,100,2240,84,2280,69C2320,54,2360,38,2400,34.5C2440,31,2480,38,2520,61.3C2560,84,2600,123,2640,130.3C2680,138,2720,115,2760,103.5C2800,92,2840,92,2860,92L2880,92L2880,230L2860,230C2840,230,2800,230,2760,230C2720,230,2680,230,2640,230C2600,230,2560,230,2520,230C2480,230,2440,230,2400,230C2360,230,2320,230,2280,230C2240,230,2200,230,2160,230C2120,230,2080,230,2040,230C2000,230,1960,230,1920,230C1880,230,1840,230,1800,230C1760,230,1720,230,1680,230C1640,230,1600,230,1560,230C1520,230,1480,230,1440,230C1400,230,1360,230,1320,230C1280,230,1240,230,1200,230C1160,230,1120,230,1080,230C1040,230,1000,230,960,230C920,230,880,230,840,230C800,230,760,230,720,230C680,230,640,230,600,230C560,230,520,230,480,230C440,230,400,230,360,230C320,230,280,230,240,230C200,230,160,230,120,230C80,230,40,230,20,230L0,230Z"/><defs><linearGradient id="sw-gradient-1" x1="0" x2="0" y1="1" y2="0"><stop stop-color="rgba(62, 89.697, 243, 1)" offset="0%"/><stop stop-color="rgba(13, 110, 253, 1)" offset="100%"/></linearGradient></defs><path style="transform:translate(0, 50px); opacity:0.9" fill="url(#sw-gradient-1)" d="M0,69L20,61.3C40,54,80,38,120,26.8C160,15,200,8,240,15.3C280,23,320,46,360,76.7C400,107,440,146,480,141.8C520,138,560,92,600,69C640,46,680,46,720,53.7C760,61,800,77,840,80.5C880,84,920,77,960,69C1000,61,1040,54,1080,76.7C1120,100,1160,153,1200,180.2C1240,207,1280,207,1320,176.3C1360,146,1400,84,1440,69C1480,54,1520,84,1560,80.5C1600,77,1640,38,1680,26.8C1720,15,1760,31,1800,61.3C1840,92,1880,138,1920,130.3C1960,123,2000,61,2040,46C2080,31,2120,61,2160,84.3C2200,107,2240,123,2280,111.2C2320,100,2360,61,2400,46C2440,31,2480,38,2520,61.3C2560,84,2600,123,2640,138C2680,153,2720,146,2760,122.7C2800,100,2840,61,2860,42.2L2880,23L2880,230L2860,230C2840,230,2800,230,2760,230C2720,230,2680,230,2640,230C2600,230,2560,230,2520,230C2480,230,2440,230,2400,230C2360,230,2320,230,2280,230C2240,230,2200,230,2160,230C2120,230,2080,230,2040,230C2000,230,1960,230,1920,230C1880,230,1840,230,1800,230C1760,230,1720,230,1680,230C1640,230,1600,230,1560,230C1520,230,1480,230,1440,230C1400,230,1360,230,1320,230C1280,230,1240,230,1200,230C1160,230,1120,230,1080,230C1040,230,1000,230,960,230C920,230,880,230,840,230C800,230,760,230,720,230C680,230,640,230,600,230C560,230,520,230,480,230C440,230,400,230,360,230C320,230,280,230,240,230C200,230,160,230,120,230C80,230,40,230,20,230L0,230Z"/></svg>