<?xml version="1.0" standalone="no"?>
<svg xmlns:xlink="http://www.w3.org/1999/xlink" id="wave" style="transform:rotate(180deg); transition: 0.3s" viewBox="0 0 1440 280" version="1.1" xmlns="http://www.w3.org/2000/svg"><defs><linearGradient id="sw-gradient-0" x1="0" x2="0" y1="1" y2="0"><stop stop-color="rgba(3, 22, 51, 1)" offset="0%"/><stop stop-color="rgba(13, 110, 253, 1)" offset="100%"/></linearGradient></defs><path style="transform:translate(0, 0px); opacity:1" fill="url(#sw-gradient-0)" d="M0,224L40,224C80,224,160,224,240,191.3C320,159,400,93,480,74.7C560,56,640,84,720,112C800,140,880,168,960,168C1040,168,1120,140,1200,130.7C1280,121,1360,131,1440,149.3C1520,168,1600,196,1680,177.3C1760,159,1840,93,1920,56C2000,19,2080,9,2160,42C2240,75,2320,149,2400,158.7C2480,168,2560,112,2640,107.3C2720,103,2800,149,2880,144.7C2960,140,3040,84,3120,56C3200,28,3280,28,3360,23.3C3440,19,3520,9,3600,32.7C3680,56,3760,112,3840,135.3C3920,159,4000,149,4080,121.3C4160,93,4240,47,4320,28C4400,9,4480,19,4560,28C4640,37,4720,47,4800,51.3C4880,56,4960,56,5040,60.7C5120,65,5200,75,5280,74.7C5360,75,5440,65,5520,84C5600,103,5680,149,5720,172.7L5760,196L5760,280L5720,280C5680,280,5600,280,5520,280C5440,280,5360,280,5280,280C5200,280,5120,280,5040,280C4960,280,4880,280,4800,280C4720,280,4640,280,4560,280C4480,280,4400,280,4320,280C4240,280,4160,280,4080,280C4000,280,3920,280,3840,280C3760,280,3680,280,3600,280C3520,280,3440,280,3360,280C3280,280,3200,280,3120,280C3040,280,2960,280,2880,280C2800,280,2720,280,2640,280C2560,280,2480,280,2400,280C2320,280,2240,280,2160,280C2080,280,2000,280,1920,280C1840,280,1760,280,1680,280C1600,280,1520,280,1440,280C1360,280,1280,280,1200,280C1120,280,1040,280,960,280C880,280,800,280,720,280C640,280,560,280,480,280C400,280,320,280,240,280C160,280,80,280,40,280L0,280Z"/><defs><linearGradient id="sw-gradient-1" x1="0" x2="0" y1="1" y2="0"><stop stop-color="rgba(13, 110, 253, 1)" offset="0%"/><stop stop-color="rgba(13, 110, 253, 1)" offset="100%"/></linearGradient></defs><path style="transform:translate(0, 50px); opacity:0.9" fill="url(#sw-gradient-1)" d="M0,28L40,46.7C80,65,160,103,240,140C320,177,400,215,480,205.3C560,196,640,140,720,107.3C800,75,880,65,960,79.3C1040,93,1120,131,1200,144.7C1280,159,1360,149,1440,126C1520,103,1600,65,1680,56C1760,47,1840,65,1920,93.3C2000,121,2080,159,2160,186.7C2240,215,2320,233,2400,219.3C2480,205,2560,159,2640,149.3C2720,140,2800,168,2880,158.7C2960,149,3040,103,3120,88.7C3200,75,3280,93,3360,102.7C3440,112,3520,112,3600,93.3C3680,75,3760,37,3840,37.3C3920,37,4000,75,4080,79.3C4160,84,4240,56,4320,51.3C4400,47,4480,65,4560,93.3C4640,121,4720,159,4800,177.3C4880,196,4960,196,5040,172.7C5120,149,5200,103,5280,70C5360,37,5440,19,5520,9.3C5600,0,5680,0,5720,0L5760,0L5760,280L5720,280C5680,280,5600,280,5520,280C5440,280,5360,280,5280,280C5200,280,5120,280,5040,280C4960,280,4880,280,4800,280C4720,280,4640,280,4560,280C4480,280,4400,280,4320,280C4240,280,4160,280,4080,280C4000,280,3920,280,3840,280C3760,280,3680,280,3600,280C3520,280,3440,280,3360,280C3280,280,3200,280,3120,280C3040,280,2960,280,2880,280C2800,280,2720,280,2640,280C2560,280,2480,280,2400,280C2320,280,2240,280,2160,280C2080,280,2000,280,1920,280C1840,280,1760,280,1680,280C1600,280,1520,280,1440,280C1360,280,1280,280,1200,280C1120,280,1040,280,960,280C880,280,800,280,720,280C640,280,560,280,480,280C400,280,320,280,240,280C160,280,80,280,40,280L0,280Z"/></svg>